HIERARCHY
ROOT Hips
{
	OFFSET 0.00000 0.00000 0.00000
	CHANNELS 6 Xposition Yposition Zposition Zrotation Yrotation Xrotation 
	JOINT LHipJoint
	{
		OFFSET 0 0 0
		CHANNELS 3 Zrotation Yrotation Xrotation
		JOINT LeftUpLeg
		{
			OFFSET 1.28366 -1.58472 0.87544
			CHANNELS 3 Zrotation Yrotation Xrotation
			JOINT LeftLeg
			{
				OFFSET 2.18587 -6.00562 0.00000
				CHANNELS 3 Zrotation Yrotation Xrotation
				JOINT LeftFoot
				{
					OFFSET 2.39085 -6.56880 0.00000
					CHANNELS 3 Zrotation Yrotation Xrotation
					JOINT LeftToeBase
					{
						OFFSET 0.12003 -0.32979 2.03101
						CHANNELS 3 Zrotation Yrotation Xrotation
						End Site
						{
							OFFSET 0.00000 -0.00000 1.04074
						}
					}
				}
			}
		}
	}
	JOINT RHipJoint
	{
		OFFSET 0 0 0
		CHANNELS 3 Zrotation Yrotation Xrotation
		JOINT RightUpLeg
		{
			OFFSET -1.21795 -1.58472 0.87544
			CHANNELS 3 Zrotation Yrotation Xrotation
			JOINT RightLeg
			{
				OFFSET -2.22714 -6.11902 0.00000
				CHANNELS 3 Zrotation Yrotation Xrotation
				JOINT RightFoot
				{
					OFFSET -2.40306 -6.60235 0.00000
					CHANNELS 3 Zrotation Yrotation Xrotation
					JOINT RightToeBase
					{
						OFFSET -0.15519 -0.42640 1.91430
						CHANNELS 3 Zrotation Yrotation Xrotation
						End Site
						{
							OFFSET -0.00000 -0.00000 0.99082
						}
					}
				}
			}
		}
	}
	JOINT LowerBack
	{
		OFFSET 0 0 0
		CHANNELS 3 Zrotation Yrotation Xrotation
		JOINT Spine
		{
			OFFSET 0.01180 1.76430 -0.06387
			CHANNELS 3 Zrotation Yrotation Xrotation
			JOINT Spine1
			{
				OFFSET -0.00388 1.74651 0.09536
				CHANNELS 3 Zrotation Yrotation Xrotation
				JOINT Neck
				{
					OFFSET 0 0 0
					CHANNELS 3 Zrotation Yrotation Xrotation
					JOINT Neck1
					{
						OFFSET 0.04111 1.46174 0.14397
						CHANNELS 3 Zrotation Yrotation Xrotation
						JOINT Head
						{
							OFFSET 0.00502 1.44580 -0.31711
							CHANNELS 3 Zrotation Yrotation Xrotation
							End Site
							{
								OFFSET -0.00395 1.49251 -0.12327
							}
						}
					}
				}
				JOINT LeftShoulder
				{
					OFFSET 0 0 0
					CHANNELS 3 Zrotation Yrotation Xrotation
					JOINT LeftArm
					{
						OFFSET 2.70917 1.34870 -0.15417
						CHANNELS 3 Zrotation Yrotation Xrotation
						JOINT LeftForeArm
						{
							OFFSET 4.46610 -0.00000 -0.00000
							CHANNELS 3 Zrotation Yrotation Xrotation
							JOINT LeftHand
							{
								OFFSET 3.41414 -0.00000 0.00000
								CHANNELS 3 Zrotation Yrotation Xrotation
								JOINT LeftFingerBase
								{
									OFFSET 0 0 0
									CHANNELS 3 Zrotation Yrotation Xrotation
									JOINT LeftHandIndex1
									{
										OFFSET 0.32830 -0.00000 0.00000
										CHANNELS 3 Zrotation Yrotation Xrotation
										End Site
										{
											OFFSET 0.26468 -0.00000 0.00000
										}
									}
								}
								JOINT LThumb
								{
									OFFSET 0 0 0
									CHANNELS 3 Zrotation Yrotation Xrotation
									End Site
									{
										OFFSET 0.26872 -0.00000 0.26872
									}
								}
							}
						}
					}
				}
				JOINT RightShoulder
				{
					OFFSET 0 0 0
					CHANNELS 3 Zrotation Yrotation Xrotation
					JOINT RightArm
					{
						OFFSET -3.06316 1.13725 -0.10883
						CHANNELS 3 Zrotation Yrotation Xrotation
						JOINT RightForeArm
						{
							OFFSET -4.40431 -0.00000 0.00000
							CHANNELS 3 Zrotation Yrotation Xrotation
							JOINT RightHand
							{
								OFFSET -3.04688 -0.00000 0.00000
								CHANNELS 3 Zrotation Yrotation Xrotation
								JOINT RightFingerBase
								{
									OFFSET 0 0 0
									CHANNELS 3 Zrotation Yrotation Xrotation
									JOINT RightHandIndex1
									{
										OFFSET -0.50049 -0.00000 0.00000
										CHANNELS 3 Zrotation Yrotation Xrotation
										End Site
										{
											OFFSET -0.40351 -0.00000 0.00000
										}
									}
								}
								JOINT RThumb
								{
									OFFSET 0 0 0
									CHANNELS 3 Zrotation Yrotation Xrotation
									End Site
									{
										OFFSET -0.40967 -0.00000 0.40967
									}
								}
							}
						}
					}
				}
			}
		}
	}
}
MOTION
Frames: 11
Frame Time: .0083333
44.8411 12.7071 14.1774 0 0 0 0 0 0 -21 0 0 0 0 0 0 0 0 0 0 0 0 0 0 21 0 0 0 0 0 0 0 0 0 0 0 0 0 0 0 0 0 0 0 0 0 0 -16 0 0 21 0 0 11 0 0 0 -8 0 0 0 0 0 0 0 0 0 0 0 0 0 0 0 0 0 0 0 0 8 0 0 0 0 0 0 0 0 0 0 0 0 0 0 0 0 0
44.8411 12.7071 14.1774 -3.6083 -28.5352 5.3592 0.0000 0.0000 0.0000 -15.4701 22.7838 -47.3762 17.2941 19.8235 82.0660 4.1539 -9.0789 -37.1439 0.1450 2.4539 6.7619 0.0000 0.0000 0.0000 17.8462 -32.8237 -50.5912 -17.1010 -19.7973 81.4964 -2.7544 -7.5536 -34.6885 -0.2773 3.3870 -9.3582 0.6028 -1.0276 5.2153 0.1819 -1.3360 -5.7156 0.0285 -0.6950 -8.9678 -9.1074 -14.7769 -9.3584 12.5293 -21.5117 15.7379 2.9643 -9.8433 8.8197 0.0000 0.0000 0.0000 -2.4118 -12.5215 67.0681 137.5411 -49.4611 -99.7114 -0.0000 0.0000 -15.5518 56.2712 -5.7470 -8.5298 -7.1250 0.0000 -0.0000 20.8138 19.9609 -13.3585 0.0000 0.0000 0.0000 16.2463 16.1195 66.9438 -129.7739 53.0863 -93.6452 0.0000 -0.0000 -8.3163 -51.3113 32.7611 -34.0478 7.1250 -0.0000 -0.0000 -10.1803 15.2294 -12.6674
44.8369 12.7064 14.1779 -3.6116 -28.5432 5.3067 0.0000 0.0000 0.0000 -15.4206 22.8197 -47.3006 17.2940 19.8235 82.0659 4.1643 -8.9979 -37.1993 0.1290 2.3151 6.3774 0.0000 0.0000 0.0000 17.7931 -32.8766 -50.5074 -17.1085 -19.7984 81.5186 -2.8989 -6.6997 -35.0231 -0.1590 2.5695 -7.0824 0.6018 -1.0674 5.2169 0.2242 -1.3865 -5.7360 0.0807 -0.7180 -8.9903 -9.0801 -14.6984 -9.3763 12.2991 -21.3785 15.9149 2.9064 -9.7911 8.8354 0.0000 -0.0000 0.0000 -2.5245 -12.3566 67.1249 137.4866 -49.4904 -99.6700 -0.0000 0.0000 -15.5550 56.2110 -5.8035 -8.5929 -7.1250 0.0000 -0.0000 20.7571 19.8821 -13.3564 0.0000 -0.0000 0.0000 16.2713 16.2238 66.9371 -129.8459 53.0575 -93.7028 0.0000 -0.0000 -8.4361 -50.9201 32.7743 -33.6869 7.1250 -0.0000 -0.0000 -9.9754 15.0282 -12.3812
44.8330 12.7068 14.1787 -3.5944 -28.5438 5.2620 0.0000 0.0000 0.0000 -15.4024 22.8443 -47.2366 17.2840 19.8222 82.0363 4.1570 -8.9619 -37.1673 0.1317 2.3396 6.4451 0.0000 0.0000 0.0000 17.7344 -32.9280 -50.4504 -17.1138 -19.7991 81.5340 -3.0266 -5.9490 -35.3351 -0.0788 1.8110 -4.9837 0.5857 -1.0115 5.1809 0.1966 -1.3152 -5.7402 0.0506 -0.6833 -8.9734 -8.9199 -14.7147 -9.4194 12.0832 -21.4015 16.0833 2.8081 -9.8029 8.8578 -0.0000 0.0000 0.0000 -2.5246 -12.4934 67.1410 137.4297 -49.5211 -99.6267 -0.0000 0.0000 -15.4999 55.9474 -5.8128 -8.5226 -7.1250 0.0000 -0.0000 20.5866 19.9291 -13.2072 -0.0000 0.0000 0.0000 16.3801 16.0039 66.8235 -129.8238 53.0663 -93.6850 0.0000 -0.0000 -8.4146 -51.0521 32.8885 -33.8934 7.1250 -0.0000 -0.0000 -10.0049 15.2296 -12.4432
44.8278 12.7066 14.1790 -3.5883 -28.5664 5.2096 0.0000 0.0000 0.0000 -15.3590 22.9166 -47.1597 17.2709 19.8205 81.9978 4.1547 -9.0022 -37.1533 0.1185 2.2193 6.1122 0.0000 0.0000 0.0000 17.6858 -32.9703 -50.3741 -17.1201 -19.8000 81.5527 -3.1460 -5.1982 -35.6165 -0.0252 1.0240 -2.8150 0.6405 -1.0048 5.1444 0.1462 -1.3053 -5.7281 -0.0356 -0.6840 -8.9411 -8.7649 -14.6627 -9.5144 11.9272 -21.3373 16.2487 2.7395 -9.7672 8.8870 -0.0000 -0.0000 0.0000 -2.4467 -12.4742 67.1026 137.4582 -49.5058 -99.6483 -0.0000 0.0000 -15.5536 55.8394 -5.4508 -7.9686 -7.1250 0.0000 -0.0000 20.6352 20.5460 -12.9330 -0.0000 -0.0000 0.0000 16.5340 15.9623 66.7463 -129.9220 53.0269 -93.7635 0.0000 -0.0000 -8.4153 -50.9203 32.8588 -33.7475 7.1250 -0.0000 -0.0000 -9.9473 15.1234 -12.3569
44.8236 12.7055 14.1789 -3.5643 -28.6013 5.1599 0.0000 0.0000 0.0000 -15.4089 22.9978 -47.1185 17.2336 19.8155 81.8876 4.1679 -8.0380 -37.2981 0.0469 1.3974 3.8430 0.0000 0.0000 0.0000 17.6460 -33.0160 -50.3398 -17.1252 -19.8007 81.5677 -3.2381 -4.6748 -35.8663 -0.0048 0.4472 -1.2287 0.4970 -0.9777 5.1245 0.2026 -1.2778 -5.7175 0.1003 -0.6591 -8.9127 -8.8161 -14.6523 -9.5132 11.9596 -21.3304 16.2982 2.7564 -9.7619 8.9127 -0.0000 0.0000 0.0000 -2.5149 -12.4338 67.0423 137.4701 -49.4994 -99.6574 -0.0000 0.0000 -15.5566 55.8154 -5.6710 -8.2778 -7.1250 0.0000 -0.0000 20.5484 20.1914 -13.0481 -0.0000 0.0000 0.0000 16.4651 15.8195 66.6549 -130.0325 52.9824 -93.8518 0.0000 -0.0000 -8.3481 -50.9311 32.8583 -33.7574 7.1250 -0.0000 -0.0000 -9.9529 15.1290 -12.3648
44.8192 12.7056 14.1791 -3.5525 -28.6275 5.1156 0.0000 0.0000 0.0000 -15.4066 23.0647 -47.0550 17.2048 19.8116 81.8027 4.1691 -7.6894 -37.3386 0.0276 1.0723 2.9477 0.0000 0.0000 0.0000 17.6117 -33.0570 -50.2849 -17.1263 -19.8008 81.5709 -3.3091 -4.2635 -36.0594 -0.0000 0.0230 -0.0631 0.4506 -0.9630 5.0944 0.2095 -1.2620 -5.7087 0.1310 -0.6481 -8.8840 -8.7725 -14.6266 -9.5456 11.9053 -21.3026 16.3952 2.7339 -9.7459 8.9368 -0.0000 -0.0000 0.0000 -2.5161 -12.3868 66.9995 137.4795 -49.4943 -99.6646 -0.0000 0.0000 -15.5587 55.7275 -5.6814 -8.2657 -7.1250 0.0000 -0.0000 20.4888 20.1946 -13.0033 -0.0000 -0.0000 0.0000 16.4958 15.7214 66.5786 -130.1179 52.9478 -93.9200 0.0000 -0.0000 -8.3148 -50.8764 32.8286 -33.6845 7.1250 -0.0000 -0.0000 -9.9349 15.0655 -12.3341
44.8148 12.7063 14.1791 -3.5400 -28.6576 5.0751 0.0000 0.0000 0.0000 -15.4063 23.1330 -46.9895 17.1719 19.8072 81.7057 4.1699 -7.3868 -37.3749 0.0151 0.7931 2.1796 0.0000 0.0000 0.0000 17.5862 -33.0923 -50.2319 -17.1231 -19.8004 81.5616 -3.3579 -4.0115 -36.2065 -0.0012 -0.2244 0.6164 0.3967 -0.9489 5.0608 0.2165 -1.2476 -5.6968 0.1658 -0.6374 -8.8496 -8.7384 -14.6038 -9.5774 11.8851 -21.2826 16.4754 2.7224 -9.7320 8.9614 0.0000 -0.0000 0.0000 -2.5056 -12.3218 66.9437 137.4997 -49.4834 -99.6799 -0.0000 0.0000 -15.5517 55.6494 -5.7003 -8.2688 -7.1250 0.0000 -0.0000 20.4328 20.1816 -12.9691 0.0000 -0.0000 0.0000 16.5144 15.6148 66.5047 -130.2074 52.9115 -93.9914 0.0000 -0.0000 -8.2749 -50.8328 32.7807 -33.6092 7.1250 -0.0000 -0.0000 -9.9284 14.9876 -12.3164
44.8103 12.7076 14.1790 -3.5298 -28.6899 5.0406 0.0000 0.0000 0.0000 -15.4026 23.2007 -46.9239 17.1407 19.8028 81.6136 4.1735 -7.1552 -37.4185 0.0077 0.5680 1.5607 0.0000 0.0000 0.0000 17.5721 -33.1210 -50.1792 -17.1148 -19.7992 81.5371 -3.3918 -3.8486 -36.3138 -0.0033 -0.3717 1.0213 0.3390 -0.9394 5.0248 0.2260 -1.2395 -5.6831 0.2063 -0.6293 -8.8117 -8.7173 -14.5821 -9.6044 11.8942 -21.2668 16.5376 2.7218 -9.7190 8.9845 0.0000 -0.0000 0.0000 -2.4880 -12.2292 66.8803 137.5293 -49.4675 -99.7024 -0.0000 0.0000 -15.5341 55.5693 -5.7209 -8.2738 -7.1250 0.0000 -0.0000 20.3749 20.1661 -12.9348 0.0000 -0.0000 0.0000 16.5182 15.5137 66.4368 -130.2967 52.8752 -94.0626 0.0000 -0.0000 -8.2389 -50.7805 32.7546 -33.5413 7.1250 -0.0000 -0.0000 -9.9103 14.9296 -12.2862
44.8060 12.7098 14.1786 -3.5198 -28.7233 5.0119 0.0000 0.0000 0.0000 -15.3971 23.2630 -46.8581 17.1094 19.7985 81.5213 4.1789 -6.9978 -37.4628 0.0040 0.4071 1.1187 0.0000 0.0000 0.0000 17.5668 -33.1423 -50.1271 -17.1016 -19.7974 81.4981 -3.4136 -3.7561 -36.3884 -0.0046 -0.4394 1.2072 0.2745 -0.9308 4.9870 0.2374 -1.2331 -5.6692 0.2526 -0.6217 -8.7725 -8.7001 -14.5657 -9.6271 11.9199 -21.2599 16.5858 2.7260 -9.7098 9.0057 0.0000 0.0000 0.0000 -2.4662 -12.1228 66.8159 137.5612 -49.4502 -99.7267 -0.0000 0.0000 -15.5031 55.4923 -5.7495 -8.2908 -7.1250 0.0000 -0.0000 20.3165 20.1371 -12.9068 0.0000 0.0000 0.0000 16.5070 15.4089 66.3739 -130.3789 52.8415 -94.1282 0.0000 -0.0000 -8.2164 -50.7247 32.7511 -33.4863 7.1250 -0.0000 -0.0000 -9.8828 14.8952 -12.2471
44.8017 12.7125 14.1781 -3.5116 -28.7563 4.9895 0.0000 0.0000 0.0000 -15.3899 23.3222 -46.7960 17.0785 19.7941 81.4298 4.1851 -6.8718 -37.5076 0.0017 0.2648 0.7274 0.0000 0.0000 0.0000 17.5701 -33.1563 -50.0754 -17.0844 -19.7950 81.4474 -3.4297 -3.6817 -36.4408 -0.0057 -0.4864 1.3366 0.2119 -0.9246 4.9475 0.2470 -1.2297 -5.6553 0.2965 -0.6158 -8.7324 -8.6740 -14.5523 -9.6522 11.9476 -21.2579 16.6272 2.7289 -9.7023 9.0247 -0.0000 -0.0000 0.0000 -2.4362 -12.0047 66.7543 137.5944 -49.4323 -99.7518 -0.0000 0.0000 -15.4629 55.4145 -5.7594 -8.2811 -7.1250 0.0000 -0.0000 20.2635 20.1387 -12.8676 -0.0000 -0.0000 0.0000 16.4873 15.3063 66.3196 -130.4502 52.8123 -94.1849 0.0000 -0.0000 -8.2107 -50.6606 32.7762 -33.4441 7.1250 -0.0000 -0.0000 -9.8416 14.8886 -12.1939
